<svg width="100%" height="100%" xmlns="http://www.w3.org/2000/svg" viewBox="0 0 200 100"><rect x="0" y="0" width="20" height="20" style="fill:rgb(5,5,5);stroke-width:1;stroke:rgb(0,0,0)" /><rect x="20" y="0" width="20" height="20" style="fill:rgb(10,10,10);stroke-width:1;stroke:rgb(0,0,0)" /><rect x="40" y="0" width="20" height="20" style="fill:rgb(15,15,15);stroke-width:1;stroke:rgb(0,0,0)" /><rect x="60" y="0" width="20" height="20" style="fill:rgb(20,20,20);stroke-width:1;stroke:rgb(0,0,0)" /><rect x="80" y="0" width="20" height="20" style="fill:rgb(25,25,25);stroke-width:1;stroke:rgb(0,0,0)" /><rect x="100" y="0" width="20" height="20" style="fill:rgb(30,30,30);stroke-width:1;stroke:rgb(0,0,0)" /><rect x="120" y="0" width="20" height="20" style="fill:rgb(35,35,35);stroke-width:1;stroke:rgb(0,0,0)" /><rect x="140" y="0" width="20" height="20" style="fill:rgb(40,40,40);stroke-width:1;stroke:rgb(0,0,0)" /><rect x="160" y="0" width="20" height="20" style="fill:rgb(45,45,45);stroke-width:1;stroke:rgb(0,0,0)" /><rect x="180" y="0" width="20" height="20" style="fill:rgb(50,50,50);stroke-width:1;stroke:rgb(0,0,0)" /><rect x="0" y="20" width="20" height="20" style="fill:rgb(55,55,55);stroke-width:1;stroke:rgb(0,0,0)" /><rect x="20" y="20" width="20" height="20" style="fill:rgb(60,60,60);stroke-width:1;stroke:rgb(0,0,0)" /><rect x="40" y="20" width="20" height="20" style="fill:rgb(65,65,65);stroke-width:1;stroke:rgb(0,0,0)" /><rect x="60" y="20" width="20" height="20" style="fill:rgb(70,70,70);stroke-width:1;stroke:rgb(0,0,0)" /><rect x="80" y="20" width="20" height="20" style="fill:rgb(75,75,75);stroke-width:1;stroke:rgb(0,0,0)" /><rect x="100" y="20" width="20" height="20" style="fill:rgb(80,80,80);stroke-width:1;stroke:rgb(0,0,0)" /><rect x="120" y="20" width="20" height="20" style="fill:rgb(85,85,85);stroke-width:1;stroke:rgb(0,0,0)" /><rect x="140" y="20" width="20" height="20" style="fill:rgb(90,90,90);stroke-width:1;stroke:rgb(0,0,0)" /><rect x="160" y="20" width="20" height="20" style="fill:rgb(95,95,95);stroke-width:1;stroke:rgb(0,0,0)" /><rect x="180" y="20" width="20" height="20" style="fill:rgb(100,100,100);stroke-width:1;stroke:rgb(0,0,0)" /><rect x="0" y="40" width="20" height="20" style="fill:rgb(105,105,105);stroke-width:1;stroke:rgb(0,0,0)" /><rect x="20" y="40" width="20" height="20" style="fill:rgb(110,110,110);stroke-width:1;stroke:rgb(0,0,0)" /><rect x="40" y="40" width="20" height="20" style="fill:rgb(115,115,115);stroke-width:1;stroke:rgb(0,0,0)" /><rect x="60" y="40" width="20" height="20" style="fill:rgb(120,120,120);stroke-width:1;stroke:rgb(0,0,0)" /><rect x="80" y="40" width="20" height="20" style="fill:rgb(125,125,125);stroke-width:1;stroke:rgb(0,0,0)" /><rect x="100" y="40" width="20" height="20" style="fill:rgb(130,130,130);stroke-width:1;stroke:rgb(0,0,0)" /><rect x="120" y="40" width="20" height="20" style="fill:rgb(135,135,135);stroke-width:1;stroke:rgb(0,0,0)" /><rect x="140" y="40" width="20" height="20" style="fill:rgb(140,140,140);stroke-width:1;stroke:rgb(0,0,0)" /><rect x="160" y="40" width="20" height="20" style="fill:rgb(145,145,145);stroke-width:1;stroke:rgb(0,0,0)" /><rect x="180" y="40" width="20" height="20" style="fill:rgb(150,150,150);stroke-width:1;stroke:rgb(0,0,0)" /><rect x="0" y="60" width="20" height="20" style="fill:rgb(155,155,155);stroke-width:1;stroke:rgb(0,0,0)" /><rect x="20" y="60" width="20" height="20" style="fill:rgb(160,160,160);stroke-width:1;stroke:rgb(0,0,0)" /><rect x="40" y="60" width="20" height="20" style="fill:rgb(165,165,165);stroke-width:1;stroke:rgb(0,0,0)" /><rect x="60" y="60" width="20" height="20" style="fill:rgb(170,170,170);stroke-width:1;stroke:rgb(0,0,0)" /><rect x="80" y="60" width="20" height="20" style="fill:rgb(175,175,175);stroke-width:1;stroke:rgb(0,0,0)" /><rect x="100" y="60" width="20" height="20" style="fill:rgb(180,180,180);stroke-width:1;stroke:rgb(0,0,0)" /><rect x="120" y="60" width="20" height="20" style="fill:rgb(185,185,185);stroke-width:1;stroke:rgb(0,0,0)" /><rect x="140" y="60" width="20" height="20" style="fill:rgb(190,190,190);stroke-width:1;stroke:rgb(0,0,0)" /><rect x="160" y="60" width="20" height="20" style="fill:rgb(195,195,195);stroke-width:1;stroke:rgb(0,0,0)" /><rect x="180" y="60" width="20" height="20" style="fill:rgb(200,200,200);stroke-width:1;stroke:rgb(0,0,0)" /><rect x="0" y="80" width="20" height="20" style="fill:rgb(205,205,205);stroke-width:1;stroke:rgb(0,0,0)" /><rect x="20" y="80" width="20" height="20" style="fill:rgb(210,210,210);stroke-width:1;stroke:rgb(0,0,0)" /><rect x="40" y="80" width="20" height="20" style="fill:rgb(215,215,215);stroke-width:1;stroke:rgb(0,0,0)" /><rect x="60" y="80" width="20" height="20" style="fill:rgb(220,220,220);stroke-width:1;stroke:rgb(0,0,0)" /><rect x="80" y="80" width="20" height="20" style="fill:rgb(225,225,225);stroke-width:1;stroke:rgb(0,0,0)" /><rect x="100" y="80" width="20" height="20" style="fill:rgb(230,230,230);stroke-width:1;stroke:rgb(0,0,0)" /><rect x="120" y="80" width="20" height="20" style="fill:rgb(235,235,235);stroke-width:1;stroke:rgb(0,0,0)" /><rect x="140" y="80" width="20" height="20" style="fill:rgb(240,240,240);stroke-width:1;stroke:rgb(0,0,0)" /><rect x="160" y="80" width="20" height="20" style="fill:rgb(245,245,245);stroke-width:1;stroke:rgb(0,0,0)" /><rect x="180" y="80" width="20" height="20" style="fill:rgb(250,250,250);stroke-width:1;stroke:rgb(0,0,0)" /></svg>